<?xml version="1.0" encoding="UTF-8"?>
<svg id="_Слой_2" data-name="Слой 2" xmlns="http://www.w3.org/2000/svg" viewBox="0 0 1920 505.56">
  <defs>
    <style>
      .cls-1 {
        fill: #fff;
      }
    </style>
  </defs>
  <g id="_Слой_1-2" data-name="Слой 1">
    <g id="_текст" data-name="текст">
      <g>
        <polygon class="cls-1" points="1122.08 184.68 1259.48 322.08 861.4 322.08 825.1 285.8 539.92 .62 766.47 .62 1187 .64 1324.4 138.02 871.66 138.02 918.32 184.68 1122.08 184.68"/>
        <polygon class="cls-1" points="1324.48 368.16 1187.08 505.55 1011.09 505.55 856.05 505.56 816.79 505.56 505.55 194.32 331.71 368.16 505.55 368.16 642.95 505.56 194.3 505.56 0 505.55 137.38 368.16 505.55 0 602.7 97.17 873.71 368.16 1324.48 368.16"/>
        <polygon class="cls-1" points="1782.65 368.25 1920 505.55 1725.83 505.55 1707.64 487.36 1645.36 425.1 1570.37 350.14 1570.37 350.12 1495.37 425.1 1433.09 487.36 1414.9 505.55 1220.73 505.55 1358.08 368.25 1433.08 293.28 1433.09 293.26 1473.29 253.08 1473.25 253.06 1220.73 .62 1414.9 .62 1522.79 108.5 1570.35 156.01 1570.37 156.04 1570.38 156.01 1617.95 108.5 1725.83 .62 1920 .62 1667.46 253.06 1667.44 253.08 1707.64 293.26 1707.66 293.28 1782.65 368.25"/>
      </g>
    </g>
  </g>
</svg>