<?xml version="1.0" encoding="utf-8"?>
<!-- Generator: Adobe Illustrator 27.3.1, SVG Export Plug-In . SVG Version: 6.00 Build 0)  -->
<svg version="1.1" xmlns="http://www.w3.org/2000/svg" xmlns:xlink="http://www.w3.org/1999/xlink" x="0px" y="0px"
	 viewBox="0 0 1920 1080" style="enable-background:new 0 0 1920 1080;" xml:space="preserve">
<style type="text/css">
	.st0{fill:none;}
	.st1{fill:#CAD975;}
	.st2{fill:#F1E4C1;}
	.st3{fill:#A9D4E5;}
	.st4{display:none;}
	.st5{display:inline;}
	.st6{display:inline;fill:#101212;}
	.st7{display:inline;fill:#FFFFFF;}
	.st8{display:inline;fill:none;stroke:#FFFFFF;stroke-miterlimit:10;}
	.st9{fill:url(#Алиса);}
	.st10{display:none;fill:#101212;}
	.st11{fill:#101212;}
</style>
<pattern  width="144.13" height="138.36" patternUnits="userSpaceOnUse" id="Алиса" viewBox="99.96 -216.83 144.13 138.36" style="overflow:visible;">
	<g>
		<rect x="99.96" y="-216.83" class="st0" width="144.13" height="138.36"/>
		<path class="st1" d="M311.04-58.31c-11.76-1.38-19.37,0.35-22.65,3.11c-3.02,2.54-4.96,5.41-2.25,11.93
			c2.94,7.09,1.53,14.73-5.54,15.91c-6.22,1.04-10.89-4.84-11.24-12.28c-0.24-5.18-1.9-8.3-5.53-7.61
			c-3.63,0.69-4.63,5.9-3.63,11.76c1.38,8.13,5.54,11.76,6.23,20.23c0.49,6.05-2.94,13.66-12.45,15.04
			c-9.3,1.35-15.91-4.32-16.6-10.55c-0.73-6.59,3.63-10.89,3.11-17.64c-0.52-6.75-4.01-10.17-5.88-17.29
			c-2.77-10.55,1.21-19.02,7.78-22.65c14.75-8.15,22.83,3.64,35.97,1.56c10.9-1.73,23.35-18.16,33.03-19.54
			c8.23-1.17,13.83,4.67,15.04,14.01C327.64-62.98,321.69-57.05,311.04-58.31z M268.84-57.79c0-2.29-1.86-4.15-4.15-4.15
			c-2.29,0-4.15,1.86-4.15,4.15s1.86,4.15,4.15,4.15C266.98-53.64,268.84-55.5,268.84-57.79z M318.3-73.18
			c0-0.96-0.78-1.73-1.73-1.73c-0.96,0-1.73,0.77-1.73,1.73s0.77,1.73,1.73,1.73C317.52-71.45,318.3-72.22,318.3-73.18z"/>
		<path class="st2" d="M148.8-77.49c0,7.17,4.59,13.81-1,16.33c-8.5,3.83-28-14.33-28-36.17c0-12,8.67-19,17.83-19
			c12.33,0,18,8.17,18,17.5C155.63-89.5,148.8-85.69,148.8-77.49z M143.39-82.86c0-1.15-0.93-2.08-2.07-2.08
			c-1.15,0-2.08,0.93-2.08,2.08c0,1.15,0.93,2.08,2.08,2.08C142.46-80.79,143.39-81.72,143.39-82.86z"/>
		<path class="st3" d="M223.49-54c-7.87,2.74-19.44-15.3-17.67-27.02c1.24-8.23,7.12-13.19,13.09-14.22c7.53-1.3,12.9,2.6,13.3,7.24
			c0.55,6.31-3.63,7.52-4.22,14.96C227.43-65.9,231.68-56.85,223.49-54z M219.71-81.51c0-1.43-1.16-2.59-2.59-2.59
			c-1.43,0-2.59,1.16-2.59,2.59c0,1.43,1.16,2.59,2.59,2.59C218.54-78.91,219.71-80.08,219.71-81.51z"/>
		<path class="st2" d="M119.35-76.47c0,1.43-1.16,2.59-2.59,2.59c-1.43,0-2.59-1.16-2.59-2.59s1.16-2.59,2.59-2.59
			C118.19-79.06,119.35-77.9,119.35-76.47z"/>
		<path class="st3" d="M184.57-84.19c0.74,8.1,12.67,7.02,17.9,14.21c10.52,14.47-1.22,46.37-21.63,46.37
			c-11.74,0-24.22-9.72-24.22-29.22c0-15.83,10.17-21.5,8.25-42.17c-1.01-10.83-12.5-20.34-12.5-34.75
			c0-5.92,3.59-13.45,11.55-13.45c7.05,0,10.82,5.95,10.82,12.9c0,6.8-5.38,15.74,1.38,19.05c5.24,2.57,13.21-4.77,19.5-6.75
			c5.19-1.64,12.39,0.22,14.75,8.5c2.53,8.88-3.25,14.75-11.59,16.69C192.47-91.32,183.98-90.63,184.57-84.19z M168.59-114.75
			c0-1.82-1.47-3.29-3.29-3.29c-1.81,0-3.29,1.47-3.29,3.29c0,1.81,1.47,3.29,3.29,3.29C167.12-111.46,168.59-112.93,168.59-114.75z
			 M194.57-105.05c1.29,0,2.33-1.04,2.33-2.33c0-1.29-1.04-2.33-2.33-2.33c-1.29,0-2.33,1.04-2.33,2.33
			C192.24-106.1,193.29-105.05,194.57-105.05z M174.59-45.38c0-1.82-1.47-3.29-3.29-3.29c-1.81,0-3.29,1.47-3.29,3.29
			c0,1.81,1.47,3.29,3.29,3.29C173.12-42.1,174.59-43.57,174.59-45.38z"/>
		<path class="st1" d="M166.91-58.31c-11.76-1.38-19.37,0.35-22.65,3.11c-3.02,2.54-4.96,5.41-2.25,11.93
			c2.94,7.09,1.53,14.73-5.54,15.91c-6.22,1.04-10.89-4.84-11.24-12.28c-0.24-5.18-1.9-8.3-5.53-7.61
			c-3.63,0.69-4.63,5.9-3.63,11.76c1.38,8.13,5.54,11.76,6.23,20.23c0.49,6.05-2.94,13.66-12.45,15.04
			c-9.3,1.35-15.91-4.32-16.6-10.55c-0.73-6.59,3.63-10.89,3.11-17.64c-0.52-6.75-4.01-10.17-5.88-17.29
			c-2.77-10.55,1.21-19.02,7.78-22.65c14.75-8.15,22.83,3.64,35.97,1.56c10.9-1.73,23.35-18.16,33.03-19.54
			c8.23-1.17,13.83,4.67,15.04,14.01C183.51-62.98,177.56-57.05,166.91-58.31z M124.71-57.79c0-2.29-1.86-4.15-4.15-4.15
			c-2.29,0-4.15,1.86-4.15,4.15s1.86,4.15,4.15,4.15C122.85-53.64,124.71-55.5,124.71-57.79z M174.17-73.18
			c0-0.96-0.78-1.73-1.73-1.73c-0.96,0-1.73,0.77-1.73,1.73s0.77,1.73,1.73,1.73C173.4-71.45,174.17-72.22,174.17-73.18z"/>
		<path class="st3" d="M290.28-104.84c0,6.23-4.15,10.72-8.65,11.59c-4.5,0.87-8.32-1.28-12.97,1.21
			c-4.84,2.59-7.09,11.07-16.78,11.07c-7.96,0-15.22-7.96-15.22-18.85c0-20.23,13.14-29.23,25.59-29.23
			C278.87-129.05,290.28-116.43,290.28-104.84z M270.57-119.19c0-2.1-1.7-3.8-3.8-3.8c-2.1,0-3.8,1.7-3.8,3.8c0,2.1,1.7,3.8,3.8,3.8
			C268.87-115.39,270.57-117.09,270.57-119.19z"/>
		<path class="st1" d="M311.04-196.67c-11.76-1.38-19.37,0.35-22.65,3.11c-3.02,2.54-4.96,5.41-2.25,11.93
			c2.94,7.09,1.53,14.73-5.54,15.91c-6.22,1.04-10.89-4.84-11.24-12.28c-0.24-5.18-1.9-8.3-5.53-7.61
			c-3.63,0.69-4.63,5.9-3.63,11.76c1.38,8.13,5.54,11.76,6.23,20.23c0.49,6.05-2.94,13.66-12.45,15.04
			c-9.3,1.35-15.91-4.32-16.6-10.55c-0.73-6.59,3.63-10.89,3.11-17.64c-0.52-6.75-4.01-10.17-5.88-17.29
			c-2.77-10.55,1.21-19.02,7.78-22.65c14.75-8.15,22.83,3.64,35.97,1.56c10.9-1.73,23.35-18.16,33.03-19.54
			c8.23-1.17,13.83,4.67,15.04,14.01C327.64-201.34,321.69-195.42,311.04-196.67z M268.84-196.15c0-2.29-1.86-4.15-4.15-4.15
			c-2.29,0-4.15,1.86-4.15,4.15c0,2.29,1.86,4.15,4.15,4.15C266.98-192,268.84-193.86,268.84-196.15z M318.3-211.54
			c0-0.96-0.78-1.73-1.73-1.73c-0.96,0-1.73,0.77-1.73,1.73c0,0.96,0.77,1.73,1.73,1.73C317.52-209.81,318.3-210.59,318.3-211.54z"
			/>
		<path class="st3" d="M131.8-133.19c-13.96,1.99-21.17-13.33-17.67-20.33c3.67-7.33,12.12-4.17,19.5-4.17
			c9.67,0,16.37-7.57,20.42-2.25C158.3-154.36,149.04-135.65,131.8-133.19z M132.32-150.67c0-1.24-1.01-2.25-2.25-2.25
			c-1.24,0-2.25,1.01-2.25,2.25c0,1.24,1.01,2.25,2.25,2.25C131.31-148.42,132.32-149.43,132.32-150.67z"/>
		<path class="st2" d="M148.8-215.86c0,7.17,4.59,13.81-1,16.33c-8.5,3.83-28-14.33-28-36.17c0-12,8.67-19,17.83-19
			c12.33,0,18,8.17,18,17.5C155.63-227.86,148.8-224.05,148.8-215.86z M143.39-221.23c0-1.15-0.93-2.08-2.07-2.08
			c-1.15,0-2.08,0.93-2.08,2.08c0,1.15,0.93,2.08,2.08,2.08C142.46-219.15,143.39-220.08,143.39-221.23z"/>
		<path class="st3" d="M146.15-104.84c0,6.23-4.15,10.72-8.65,11.59c-4.5,0.87-8.32-1.28-12.97,1.21
			c-4.84,2.59-7.09,11.07-16.78,11.07c-7.96,0-15.22-7.96-15.22-18.85c0-20.23,13.14-29.23,25.59-29.23
			C134.74-129.05,146.15-116.43,146.15-104.84z M126.44-119.19c0-2.1-1.7-3.8-3.8-3.8c-2.1,0-3.8,1.7-3.8,3.8c0,2.1,1.7,3.8,3.8,3.8
			C124.74-115.39,126.44-117.09,126.44-119.19z"/>
		<path class="st1" d="M145.46-128.53c0,1.34-1.08,2.42-2.42,2.42c-1.34,0-2.42-1.08-2.42-2.42c0-1.34,1.08-2.42,2.42-2.42
			C144.38-130.95,145.46-129.87,145.46-128.53z"/>
		<path class="st3" d="M229.16-147.04c-3.19,4.68,1.04,10.72-1.38,15.22c-2.42,4.5-6.74,5.02-9.86,2.6
			c-3.63-2.83-3.41-6.64-8.3-8.82c-5.53-2.46-17.98,2.25-19.71-7.26c-0.88-4.81,2.38-8.57,7.26-9.68c6.05-1.38,9.35-0.18,15.39-3.11
			c6.05-2.94,11.24-8.99,22.14-12.11c10.41-2.97,16.07,1.56,16.6,5.88C252.34-155.86,234.17-154.38,229.16-147.04z M226.91-154.47
			c0-1.24-1.01-2.25-2.25-2.25c-1.24,0-2.25,1.01-2.25,2.25c0,1.24,1.01,2.25,2.25,2.25C225.91-152.23,226.91-153.23,226.91-154.47z
			"/>
		<path class="st2" d="M256.13-107.86c0,17.17-14.5,25.5-27,22.83c-10.26-2.19-12.83-17.33-16.67-26.17
			c-3.71-8.56-8.83-22.5-20.17-22.5c-11.2,0-12.83,14.5-23.67,14.5c-11,0-24.5-15.67-24.5-39.67c0-14.67,9.8-31.46,20.83-30.67
			c11.67,0.83,4.5,19.67,15.33,19.67c9.5,0,7.86-16.26,9.17-23.33c1.67-9,6.83-14.17,18.5-13.17c14.44,1.24,22.33,13.5,18.87,23.34
			c-4.03,11.45-23.87,17.32-21.54,30.49c1.35,7.59,13,12,26,16.17C245.82-131.7,256.13-125.02,256.13-107.86z M211.18-183.7
			c0,1.82,1.47,3.29,3.29,3.29c1.81,0,3.29-1.47,3.29-3.29s-1.47-3.29-3.29-3.29C212.65-186.99,211.18-185.52,211.18-183.7z
			 M164.48-158.8c0-0.96-0.77-1.73-1.73-1.73c-0.96,0-1.73,0.78-1.73,1.73c0,0.96,0.78,1.73,1.73,1.73
			C163.71-157.07,164.48-157.84,164.48-158.8z M181.95-148.08c0-2.1-1.7-3.8-3.8-3.8c-2.1,0-3.8,1.7-3.8,3.8c0,2.1,1.71,3.8,3.8,3.8
			C180.25-144.27,181.95-145.97,181.95-148.08z M201.84-163.64c0-0.86-0.7-1.56-1.56-1.56c-0.86,0-1.56,0.7-1.56,1.56
			c0,0.86,0.7,1.56,1.56,1.56C201.14-162.08,201.84-162.78,201.84-163.64z M231.48-108.94c0-1.75-1.42-3.17-3.17-3.17
			c-1.75,0-3.17,1.42-3.17,3.17c0,1.75,1.42,3.17,3.17,3.17C230.06-105.77,231.48-107.19,231.48-108.94z"/>
		<path class="st3" d="M223.49-192.36c-7.87,2.74-19.44-15.3-17.67-27.02c1.24-8.23,7.12-13.19,13.09-14.22
			c7.53-1.3,12.9,2.6,13.3,7.24c0.55,6.31-3.63,7.52-4.22,14.96C227.43-204.26,231.68-195.21,223.49-192.36z M219.71-219.87
			c0-1.43-1.16-2.59-2.59-2.59c-1.43,0-2.59,1.16-2.59,2.59c0,1.43,1.16,2.59,2.59,2.59C218.54-217.28,219.71-218.44,219.71-219.87z
			"/>
		<path class="st2" d="M119.35-214.83c0,1.43-1.16,2.59-2.59,2.59c-1.43,0-2.59-1.16-2.59-2.59c0-1.43,1.16-2.59,2.59-2.59
			C118.19-217.42,119.35-216.26,119.35-214.83z"/>
		<path class="st2" d="M253.35-128.09c0-8.41-5.08-15.23-11.34-15.23s-11.34,6.82-11.34,15.23c0,8.41,5.08,12.44,11.34,12.44
			S253.35-119.68,253.35-128.09z"/>
		<path class="st3" d="M184.57-222.55c0.74,8.1,12.67,7.02,17.9,14.21c10.52,14.47-1.22,46.37-21.63,46.37
			c-11.74,0-24.22-9.72-24.22-29.22c0-15.83,10.17-21.5,8.25-42.17c-1.01-10.83-12.5-20.34-12.5-34.75
			c0-5.92,3.59-13.45,11.55-13.45c7.05,0,10.82,5.95,10.82,12.9c0,6.8-5.38,15.74,1.38,19.05c5.24,2.57,13.21-4.77,19.5-6.75
			c5.19-1.64,12.39,0.22,14.75,8.5c2.53,8.88-3.25,14.75-11.59,16.69C192.47-229.69,183.98-228.99,184.57-222.55z M168.59-253.11
			c0-1.82-1.47-3.29-3.29-3.29c-1.81,0-3.29,1.47-3.29,3.29c0,1.81,1.47,3.29,3.29,3.29C167.12-249.82,168.59-251.3,168.59-253.11z
			 M194.57-243.41c1.29,0,2.33-1.04,2.33-2.33c0-1.29-1.04-2.33-2.33-2.33c-1.29,0-2.33,1.04-2.33,2.33
			C192.24-244.46,193.29-243.41,194.57-243.41z M174.59-183.74c0-1.82-1.47-3.29-3.29-3.29c-1.81,0-3.29,1.47-3.29,3.29
			c0,1.81,1.47,3.29,3.29,3.29C173.12-180.46,174.59-181.93,174.59-183.74z"/>
		<path class="st1" d="M166.91-196.67c-11.76-1.38-19.37,0.35-22.65,3.11c-3.02,2.54-4.96,5.41-2.25,11.93
			c2.94,7.09,1.53,14.73-5.54,15.91c-6.22,1.04-10.89-4.84-11.24-12.28c-0.24-5.18-1.9-8.3-5.53-7.61
			c-3.63,0.69-4.63,5.9-3.63,11.76c1.38,8.13,5.54,11.76,6.23,20.23c0.49,6.05-2.94,13.66-12.45,15.04
			c-9.3,1.35-15.91-4.32-16.6-10.55c-0.73-6.59,3.63-10.89,3.11-17.64c-0.52-6.75-4.01-10.17-5.88-17.29
			c-2.77-10.55,1.21-19.02,7.78-22.65c14.75-8.15,22.83,3.64,35.97,1.56c10.9-1.73,23.35-18.16,33.03-19.54
			c8.23-1.17,13.83,4.67,15.04,14.01C183.51-201.34,177.56-195.42,166.91-196.67z M124.71-196.15c0-2.29-1.86-4.15-4.15-4.15
			c-2.29,0-4.15,1.86-4.15,4.15c0,2.29,1.86,4.15,4.15,4.15C122.85-192,124.71-193.86,124.71-196.15z M174.17-211.54
			c0-0.96-0.78-1.73-1.73-1.73c-0.96,0-1.73,0.77-1.73,1.73c0,0.96,0.77,1.73,1.73,1.73C173.4-209.81,174.17-210.59,174.17-211.54z"
			/>
		<path class="st1" d="M230.2-174.36c0,0.76-0.62,1.38-1.38,1.38c-0.76,0-1.38-0.62-1.38-1.38c0-0.76,0.62-1.38,1.38-1.38
			C229.58-175.74,230.2-175.12,230.2-174.36z"/>
		<path class="st2" d="M235.73-212.75c0,1.24-1.01,2.25-2.25,2.25s-2.25-1.01-2.25-2.25c0-1.24,1.01-2.25,2.25-2.25
			S235.73-213.99,235.73-212.75z"/>
		<path class="st3" d="M152.21-189.58c0,0.67-0.54,1.21-1.21,1.21s-1.21-0.54-1.21-1.21s0.54-1.21,1.21-1.21
			S152.21-190.25,152.21-189.58z"/>
		<path class="st3" d="M148.57-121.1c0,0.76-0.62,1.38-1.38,1.38s-1.38-0.62-1.38-1.38c0-0.76,0.62-1.38,1.38-1.38
			S148.57-121.86,148.57-121.1z"/>
		<path class="st2" d="M233.14-143.06c0,0.67-0.54,1.21-1.21,1.21s-1.21-0.54-1.21-1.21c0-0.67,0.54-1.21,1.21-1.21
			S233.14-143.73,233.14-143.06z"/>
		<path class="st1" d="M195.85-125.13c0,1.88-1.53,3.41-3.41,3.41c-1.88,0-3.41-1.53-3.41-3.41c0-1.88,1.53-3.41,3.41-3.41
			C194.32-128.54,195.85-127.02,195.85-125.13z"/>
		<path class="st2" d="M200.83-85.28c0,1.16-0.94,2.1-2.1,2.1c-1.16,0-2.1-0.94-2.1-2.1s0.94-2.1,2.1-2.1
			C199.89-87.38,200.83-86.44,200.83-85.28z"/>
		<path class="st2" d="M162.03-91.58c0,0.87-0.7,1.57-1.57,1.57c-0.87,0-1.57-0.7-1.57-1.57c0-0.87,0.71-1.57,1.57-1.57
			C161.33-93.15,162.03-92.44,162.03-91.58z"/>
		<circle class="st1" cx="233.08" cy="-205.62" r="2.62"/>
		<circle class="st3" cx="223.12" cy="-170.75" r="2.36"/>
		<path class="st2" d="M127.69-164.2c0,1.45-1.17,2.62-2.62,2.62c-1.45,0-2.62-1.17-2.62-2.62c0-1.45,1.17-2.62,2.62-2.62
			C126.51-166.82,127.69-165.65,127.69-164.2z"/>
		<path class="st3" d="M122.7-171.28c0,0.72-0.59,1.31-1.31,1.31c-0.72,0-1.31-0.59-1.31-1.31s0.59-1.31,1.31-1.31
			C122.12-172.59,122.7-172,122.7-171.28z"/>
		<path class="st2" d="M186.94-119.37c0,0.87-0.71,1.57-1.57,1.57c-0.87,0-1.57-0.7-1.57-1.57c0-0.87,0.7-1.57,1.57-1.57
			C186.23-120.94,186.94-120.24,186.94-119.37z"/>
		<path class="st3" d="M85.03-147.04c-3.19,4.68,1.04,10.72-1.38,15.22c-2.42,4.5-6.74,5.02-9.86,2.6c-3.63-2.83-3.41-6.64-8.3-8.82
			c-5.53-2.46-17.98,2.25-19.71-7.26c-0.88-4.81,2.38-8.57,7.26-9.68c6.05-1.38,9.35-0.18,15.39-3.11
			c6.05-2.94,11.24-8.99,22.14-12.11c10.41-2.97,16.07,1.56,16.6,5.88C108.21-155.86,90.04-154.38,85.03-147.04z M82.78-154.47
			c0-1.24-1.01-2.25-2.25-2.25c-1.24,0-2.25,1.01-2.25,2.25c0,1.24,1.01,2.25,2.25,2.25C81.78-152.23,82.78-153.23,82.78-154.47z"/>
		<path class="st2" d="M112-107.86c0,17.17-14.5,25.5-27,22.83c-10.26-2.19-12.83-17.33-16.67-26.17
			c-3.71-8.56-8.83-22.5-20.17-22.5c-11.2,0-12.83,14.5-23.67,14.5c-11,0-24.5-15.67-24.5-39.67c0-14.67,9.8-31.46,20.83-30.67
			c11.67,0.83,4.5,19.67,15.33,19.67c9.5,0,7.86-16.26,9.17-23.33c1.67-9,6.83-14.17,18.5-13.17c14.44,1.24,22.33,13.5,18.87,23.34
			c-4.03,11.45-23.87,17.32-21.54,30.49c1.35,7.59,13,12,26,16.17C101.69-131.7,112-125.02,112-107.86z M67.05-183.7
			c0,1.82,1.47,3.29,3.29,3.29c1.81,0,3.29-1.47,3.29-3.29s-1.47-3.29-3.29-3.29C68.52-186.99,67.05-185.52,67.05-183.7z
			 M20.36-158.8c0-0.96-0.77-1.73-1.73-1.73c-0.96,0-1.73,0.78-1.73,1.73c0,0.96,0.78,1.73,1.73,1.73
			C19.58-157.07,20.36-157.84,20.36-158.8z M37.82-148.08c0-2.1-1.7-3.8-3.8-3.8c-2.1,0-3.8,1.7-3.8,3.8c0,2.1,1.71,3.8,3.8,3.8
			C36.12-144.27,37.82-145.97,37.82-148.08z M57.71-163.64c0-0.86-0.7-1.56-1.56-1.56c-0.86,0-1.56,0.7-1.56,1.56
			c0,0.86,0.7,1.56,1.56,1.56C57.01-162.08,57.71-162.78,57.71-163.64z M87.35-108.94c0-1.75-1.42-3.17-3.17-3.17
			c-1.75,0-3.17,1.42-3.17,3.17c0,1.75,1.42,3.17,3.17,3.17C85.93-105.77,87.35-107.19,87.35-108.94z"/>
		<path class="st2" d="M109.22-128.09c0-8.41-5.08-15.23-11.34-15.23c-6.26,0-11.34,6.82-11.34,15.23c0,8.41,5.08,12.44,11.34,12.44
			C104.14-115.65,109.22-119.68,109.22-128.09z"/>
	</g>
</pattern>
<g id="морда" class="st4">
	<polygon class="st5" points="817.11,950.07 880.26,845.99 753.96,845.99 	"/>
	<polygon class="st5" points="711.48,690.1 795.01,709.13 692.46,606.57 	"/>
	<polygon class="st5" points="919.45,692.72 835.91,711.74 938.47,609.19 	"/>
	<circle class="st5" cx="816.52" cy="770.73" r="121.95"/>
	<polygon class="st6" points="613.99,726.15 635.13,850.05 817.11,1000.82 792.6,909.34 791.22,904.17 787.36,889.8 735.24,695.29 
		689.2,523.45 	"/>
	<polygon class="st6" points="1020.22,726.15 999.08,850.05 817.11,1000.82 841.61,909.34 842.99,904.17 846.85,889.8 
		898.97,695.29 945.01,523.45 	"/>
	<polygon class="st7" points="954.38,847.13 972.56,744.63 864.09,898.97 	"/>
	<polygon class="st7" points="674.83,846.51 656.64,744.01 765.11,898.35 	"/>
	<polygon class="st6" points="923.68,860.43 931.97,813.65 882.48,884.08 	"/>
	<polygon class="st6" points="708.58,860.98 700.29,814.2 749.78,884.64 	"/>
	<line class="st8" x1="916.03" y1="631.63" x2="916.03" y2="631.63"/>
	<line class="st8" x1="707.41" y1="762.24" x2="707.41" y2="762.24"/>
</g>
<g id="Слой_8">
</g>
<g id="Слой_2">
	<g id="Слой_1">
		<polygon class="st9" points="567.94,377.48 567.01,380.35 566.08,377.48 567.01,378.15 		"/>
		<polygon points="473.37,495.3 473.01,496.41 472.65,495.3 473.01,495.55 		"/>
	</g>
	<polygon class="st4" points="1456.05,301.82 1475.11,279.85 1437,279.85 	"/>
	<path class="st10" d="M1538.2,214.43L1538.2,214.43c-5.52,32.33-22.44,61.62-47.69,82.54l-34.46,28.55l9.75-36.4v-0.01l0.16-0.59
		l0.56-2.09l1.56-5.81l0.02-0.06l0.09-0.34l20.73-77.37l0.24-0.9l1.25-4.65l3.81-14.22l1.84-6.89l8.66-32.33l3.06-11.41
		L1538.2,214.43L1538.2,214.43z"/>
</g>
<g id="лицо_3">
</g>
<g id="глаза" class="st4">
	<polygon class="st7" points="1469.22,610.36 1461.87,568.91 1505.74,631.33 	"/>
	<polygon class="st7" points="1582.29,610.62 1589.64,569.16 1545.77,631.58 	"/>
	<polygon class="st6" points="1569.87,615.99 1573.23,597.07 1553.21,625.56 	"/>
	<polygon class="st6" points="1482.88,616.22 1479.52,597.3 1499.54,625.78 	"/>
</g>
<g id="_уши">
</g>
<g id="текст">
	<g>
		<polygon class="st11" points="1122.08,471.88 1259.48,609.28 861.4,609.28 825.1,573 539.92,287.82 766.47,287.82 1187,287.84 
			1324.4,425.22 871.66,425.22 918.32,471.88 		"/>
		<polygon class="st11" points="1324.48,655.36 1187.08,792.75 1011.09,792.75 856.05,792.76 816.79,792.76 505.55,481.52 
			331.71,655.36 505.55,655.36 642.95,792.76 194.3,792.76 0,792.75 137.38,655.36 505.55,287.2 602.7,384.37 873.71,655.36 		"/>
		<polygon class="st11" points="1782.65,655.45 1920,792.75 1725.83,792.75 1707.64,774.56 1645.36,712.3 1570.37,637.34 
			1570.37,637.32 1495.37,712.3 1433.09,774.56 1414.9,792.75 1220.73,792.75 1358.08,655.45 1433.08,580.48 1433.09,580.46 
			1473.29,540.28 1473.25,540.26 1220.73,287.82 1414.9,287.82 1522.79,395.7 1570.35,443.21 1570.37,443.24 1570.38,443.21 
			1617.95,395.7 1725.83,287.82 1920,287.82 1667.46,540.26 1667.44,540.28 1707.64,580.46 1707.66,580.48 		"/>
	</g>
</g>
</svg>
