<?xml version="1.0" encoding="utf-8"?>
<!-- Generator: Adobe Illustrator 27.3.1, SVG Export Plug-In . SVG Version: 6.00 Build 0)  -->
<svg version="1.1" id="текст" xmlns="http://www.w3.org/2000/svg" xmlns:xlink="http://www.w3.org/1999/xlink" x="0px" y="0px"
	 viewBox="0 0 1920 1080" style="enable-background:new 0 0 1920 1080;" xml:space="preserve">
<style type="text/css">
	.st0{fill:#010202;}
	.st1{fill:#FFFFFF;}
	.st2{fill:#101212;}
	.st3{fill:#2D2D2D;}
</style>
<g>
	<ellipse cx="986.4" cy="461.6" rx="208.3" ry="103.7"/>
	<path d="M960.7,423.7l-113.1-25.8l-1.3-0.3l-24.5-5.6l-3.8-0.8l-19.8-86.9l-12.7-55.8l30,30l10.2,38.2
		c10.4,23.7,25.9,44.8,45.1,61.6c23.7,20.8,53,35.3,85.3,40.9L960.7,423.7z"/>
	<path d="M1205.7,248.5l-18.5,81.2l-9.6,42l-4.4,19.5l-26.2,6l-0.2,0l-16.6,3.8l-3.9,0.9l-95.8,21.8l10.5-10.5
		c22.8-7.4,43.5-19.4,61.1-34.8c23.4-20.5,41.2-47.1,51.1-77.3l0.2-0.3l26.3-26.3l24.2-24.2L1205.7,248.5z"/>
	<path d="M815.5,278.5l10.2,38.2c-5.5-12.6-9.6-26-12-40c-0.6-3.5-1.1-7-1.5-10.5L815.5,278.5z"/>
	<path d="M1194.7,551.6c0,4.9-0.2,9.7-0.5,14.4c-1.6,24.2-7.4,47.3-16.6,68.5c-11.4,26.2-28,49.7-48.6,69
		c-17.1,16.1-36.9,29.3-58.7,38.8c-12.3,5.4-25.3,9.7-38.7,12.7c-14.5,3.3-29.7,4.9-45.2,4.9c-14.8,0-29.2-1.6-43.2-4.5
		c-17.4-3.7-34-9.5-49.4-17.2c-16.3-8-31.3-18.2-44.8-30.1c-24.6-21.6-44.1-48.9-56.4-80c-6.6-16.6-11.1-34.2-13.1-52.5
		c-0.9-7.9-1.4-15.9-1.4-24c0-61.1,26.3-116,68.1-154c0.3-0.3,0.6-0.6,0.9-0.8c7.4-6.7,15.4-12.9,23.7-18.5
		c23.7,20.8,53,35.3,85.3,40.9c9.8,1.7,19.9,2.6,30.2,2.6c19,0,37.4-3,54.5-8.7c22.8-7.4,43.5-19.4,61.1-34.8
		c8.9,6,17.4,12.6,25.3,19.8c1,0.9,1.9,1.8,2.9,2.7C1169.9,438.9,1194.7,492.4,1194.7,551.6z"/>
	<path class="st0" d="M987.5,920.2L774.7,743.9c-111.2-92.2-152.1-244.6-101.8-380l96.1-259l43.2,161.4l3.3,12.3l10.2,38.2
		l21.5,80.1l0.3,1.1l95.8,357.5L987.4,920L987.5,920.2z"/>
	<path class="st0" d="M1200.1,743.8L987.4,920l44.2-165.1l94.6-353.1l1-3.7l26.1-97.4l1.1-4l2.9-10.7l0-0.2l48.6-181.2l96.1,258.9
		C1352.3,499.1,1311.4,651.6,1200.1,743.8z"/>
	<polygon class="st1" points="1221.9,657.5 1252.9,482.5 1067.7,746.1 	"/>
	<polygon class="st1" points="744.4,656.5 713.4,481.4 898.6,745 	"/>
	<polygon class="st2" points="1169.5,680.2 1183.6,600.4 1099.1,720.6 	"/>
	<polygon class="st2" points="802.1,681.2 787.9,601.3 872.5,721.6 	"/>
	<polygon points="987.5,833.8 1062.5,729 912.5,729 	"/>
	<path class="st1" d="M1251.6,288.2c-21.2,3.1-40.5,11.8-56.5,24.5c-15.3,12.1-27.6,27.9-35.4,46l15.8-58.8l33.8-126.2L1251.6,288.2
		z"/>
	<path class="st3" d="M1223.8,268.8c-7.5,1.1-14.3,4.2-20,8.7c-5.4,4.3-9.7,9.9-12.5,16.3l5.6-20.8l11.9-44.6L1223.8,268.8z"/>
	<path class="st1" d="M722.7,288.2c21.2,3.1,40.5,11.8,56.5,24.5c15.3,12.1,27.6,27.9,35.4,46l-15.8-58.8l-33.8-126.2L722.7,288.2z"
		/>
	<path class="st3" d="M750.5,268.8c7.5,1.1,14.3,4.2,20,8.7c5.4,4.3,9.7,9.9,12.5,16.3l-5.6-20.8l-11.9-44.6L750.5,268.8z"/>
</g>
</svg>